# xmcd CD database file
#
# Track frame offsets:
#	150
#	23770
#	43832
#	67787
#
# Disc length: 1501 seconds
#
# Revision: 0
# Processed by: cddbd v1.5.2PL0 Copyright (c) Steve Scherf et al.
# Submitted via: CDex 1.70beta2
#
DISCID=2905db04
DTITLE=Jazzmin - The Black Bag Demos
DYEAR=2000
DGENRE=Jazz
TTITLE0=Killa B
TTITLE1=Gravity
TTITLE2=Wall
TTITLE3=Strangelove
EXTD=YEAR: 2000
EXTT0=
EXTT1=
EXTT2=
EXTT3=
PLAYORDER=
